<svg width="108" height="108" viewBox="0 0 108 108" fill="none" xmlns="http://www.w3.org/2000/svg">
<path d="M45.7739 8.94999L46.9231 11.7103C47.7297 13.8483 48.4218 16.0283 48.9963 18.2407V25.3433C49.0098 25.4966 49.08 25.6392 49.193 25.743C49.306 25.8469 49.4536 25.9045 49.6068 25.9045C49.76 25.9045 49.9076 25.8469 50.0206 25.743C50.1336 25.6392 50.2037 25.4966 50.2173 25.3433V18.2359C50.7422 16.1187 51.3816 14.0318 52.1325 11.9844L53.454 8.78168C54.1022 7.33076 54.8878 5.94584 55.8002 4.64608C55.8853 4.51374 55.9167 4.35365 55.8878 4.19879C55.8589 4.04392 55.772 3.90606 55.645 3.81361C55.518 3.72116 55.3605 3.68116 55.205 3.70183C55.0494 3.72251 54.9077 3.80229 54.809 3.92475C53.0805 6.32437 51.7111 9.51263 50.7535 12.2585C50.7535 12.2585 50.7535 12.2873 50.7152 12.2969C50.6918 12.315 50.6633 12.3251 50.6338 12.3258H50.5859C50.5708 12.3225 50.5572 12.314 50.5476 12.3018C50.5278 12.283 50.5101 12.262 50.495 12.2392C50.4809 12.215 50.4697 12.1891 50.4614 12.1623V12.1238C50.4614 12.095 50.4614 12.0613 50.4279 12.0228C50.3944 11.9844 50.4279 12.0228 50.4279 11.9796C50.4114 11.9211 50.3987 11.8617 50.3896 11.8016C50.3896 11.7391 50.3896 11.6718 50.3609 11.5949C50.3586 11.5693 50.3586 11.5435 50.3609 11.5179C50.3609 11.4554 50.3609 11.3881 50.3609 11.3208C50.3609 11.2534 50.3609 11.2582 50.3609 11.2246C50.3609 11.1909 50.3609 11.0563 50.3609 10.9697C50.3585 10.9457 50.3585 10.9216 50.3609 10.8976C50.3609 10.7774 50.3609 10.6523 50.3609 10.5177V3.66988C50.3684 3.5848 50.3582 3.49908 50.3309 3.41818C50.3037 3.33727 50.2599 3.26295 50.2025 3.19995C50.1451 3.13694 50.0752 3.08662 49.9974 3.0522C49.9196 3.01778 49.8355 3 49.7504 3C49.6654 3 49.5813 3.01778 49.5034 3.0522C49.4256 3.08662 49.3557 3.13694 49.2983 3.19995C49.2409 3.26295 49.1972 3.33727 49.1699 3.41818C49.1426 3.49908 49.1324 3.5848 49.1399 3.66988V10.0368C49.1399 10.1522 49.1399 10.2628 49.1399 10.3638C49.1399 10.4648 49.1399 10.4359 49.1399 10.4648C49.1399 10.5994 49.1399 10.7245 49.1399 10.8447C49.1423 10.8671 49.1423 10.8896 49.1399 10.912C49.1399 11.005 49.1399 11.0915 49.1399 11.1717C49.1376 11.2037 49.1376 11.2358 49.1399 11.2679C49.1399 11.3352 49.1399 11.4025 49.1399 11.465C49.1399 11.5275 49.1399 11.5179 49.1399 11.542C49.1399 11.566 49.1399 11.6862 49.1064 11.7487C49.0974 11.8088 49.0846 11.8682 49.0681 11.9267C49.0708 11.941 49.0708 11.9557 49.0681 11.9699C49.0607 12.0048 49.0495 12.0386 49.0346 12.0709V12.1094C49.0264 12.1362 49.0151 12.1621 49.0011 12.1863L48.9532 12.2489C48.9412 12.2605 48.9263 12.2688 48.9101 12.2729H48.8622C48.8329 12.2713 48.8047 12.2613 48.7808 12.2441C48.7569 12.2441 48.733 12.196 48.709 12.1719C47.7131 9.40202 46.315 6.18491 44.5817 3.79491C44.5367 3.72368 44.4777 3.66249 44.4082 3.61513C44.3387 3.56777 44.2603 3.53526 44.1778 3.51961C44.0953 3.50396 44.0104 3.5055 43.9285 3.52415C43.8466 3.5428 43.7694 3.57815 43.7017 3.628C43.634 3.67786 43.5772 3.74117 43.5348 3.81399C43.4925 3.88681 43.4655 3.9676 43.4555 4.05134C43.4455 4.13507 43.4528 4.21998 43.4769 4.30078C43.5009 4.38158 43.5412 4.45655 43.5953 4.52105C44.4602 5.92438 45.1897 7.40742 45.7739 8.94999Z" fill="white"/>
<path d="M51.2322 58.1255C51.2706 58.2216 51.3089 58.3178 51.3424 58.414C51.5626 58.9862 51.7541 59.5874 51.9409 60.1644C52.4915 61.8764 53.0661 63.6412 54.3828 65.0791L54.4738 65.2185C54.5887 65.3916 54.7132 65.5696 54.8329 65.7379C54.8884 65.8135 54.9604 65.8753 55.0434 65.9187C55.1264 65.962 55.2182 65.9857 55.3117 65.9879C55.4403 65.9873 55.5657 65.9471 55.6708 65.8725C55.8013 65.7755 55.8885 65.6308 55.9136 65.4697C55.9387 65.3086 55.8996 65.1441 55.8049 65.0117C55.6899 64.853 55.575 64.6943 55.4649 64.5308L55.3548 64.3673L55.2925 64.2856C54.846 63.7977 54.4704 63.2489 54.1769 62.6554L53.4779 60.9675C53.3438 60.5828 53.2145 60.1885 53.0852 59.7893C52.8985 59.1978 52.6974 58.5823 52.4676 57.9764C52.4341 57.8898 52.4005 57.7985 52.3622 57.7071C52.0806 56.7044 51.7137 55.7278 51.2658 54.7881C50.7106 53.7075 50.323 52.548 50.1166 51.3498C50.1194 51.3339 50.1194 51.3176 50.1166 51.3017C50.1073 51.2538 50.0929 51.207 50.0735 51.1623C50.0744 51.1446 50.0744 51.127 50.0735 51.1094C49.9563 49.1864 49.9851 47.2573 50.1597 45.3387V44.2423C50.1462 44.0891 50.076 43.9465 49.963 43.8426C49.85 43.7388 49.7024 43.6812 49.5492 43.6812C49.3961 43.6812 49.2484 43.7388 49.1354 43.8426C49.0225 43.9465 48.9523 44.0891 48.9388 44.2423V45.2474C48.7561 47.2232 48.7225 49.2102 48.8382 51.1911C48.7391 51.4151 48.7205 51.6666 48.7855 51.9028L48.7568 52.0038C48.503 52.9656 47.9045 55.1247 47.014 57.534L45.6781 60.7848C45.031 62.2362 44.2452 63.6212 43.3319 64.9204C43.2844 64.9857 43.2501 65.0598 43.2311 65.1384C43.2121 65.2171 43.2088 65.2987 43.2212 65.3787C43.2337 65.4586 43.2617 65.5353 43.3037 65.6044C43.3457 65.6734 43.4008 65.7335 43.466 65.7811C43.5711 65.8557 43.6964 65.896 43.8251 65.8966C43.9186 65.8943 44.0104 65.8706 44.0934 65.8273C44.1764 65.784 44.2484 65.7221 44.3039 65.6465C46.0372 63.2421 47.4066 60.0827 48.3929 57.308C48.428 57.2546 48.4681 57.2047 48.5126 57.1589C48.5702 57.0506 48.6585 56.9619 48.7664 56.904C48.8573 56.8567 48.9539 56.8212 49.0537 56.7982H49.1255C49.2199 56.7775 49.3161 56.7663 49.4128 56.7646C49.4733 56.7598 49.5342 56.7598 49.5947 56.7646H49.6809C49.7658 56.7813 49.8491 56.8054 49.9299 56.8367C49.9862 56.8558 50.0407 56.8799 50.0927 56.9088C50.7439 57.0435 50.7439 57.0435 50.7199 57.5484C50.726 57.6059 50.726 57.664 50.7199 57.7215C50.7199 57.7937 50.7199 57.885 50.7199 58.0052C50.787 57.9399 50.8336 57.8564 50.854 57.7648C50.8615 57.68 50.85 57.5946 50.8205 57.5147C50.8066 57.1906 50.7617 56.8685 50.6864 56.553C50.8794 57.022 51.0394 57.5041 51.1652 57.9956L51.2322 58.1255Z" fill="white"/>
<path d="M20.8426 24.2132C22.5159 24.1135 24.1949 24.178 25.8557 24.4056L28.8004 24.8864C31.0385 25.3052 33.2523 25.8462 35.4319 26.507L41.46 30.2194C41.5282 30.2704 41.6061 30.3065 41.6889 30.3256C41.7717 30.3447 41.8576 30.3463 41.941 30.3303C42.0245 30.3142 42.1037 30.281 42.1737 30.2326C42.2436 30.1842 42.3028 30.1217 42.3474 30.0491C42.3921 29.9765 42.4212 29.8954 42.433 29.8109C42.4447 29.7264 42.4388 29.6403 42.4157 29.5582C42.3926 29.4761 42.3528 29.3997 42.2987 29.3339C42.2446 29.2681 42.1775 29.2143 42.1016 29.1759L36.0687 25.4587C34.5426 23.9004 33.1039 22.258 31.7594 20.5392L29.7436 17.7501C28.8472 16.437 28.0806 15.039 27.4549 13.576C27.3914 13.4255 27.271 13.3065 27.1201 13.2452C26.9693 13.1839 26.8004 13.1853 26.6505 13.249C26.5007 13.3128 26.3822 13.4337 26.3211 13.5853C26.2601 13.7368 26.2614 13.9064 26.3249 14.0569C27.4405 16.7883 29.4276 19.6304 31.2471 21.8953C31.2489 21.9193 31.2489 21.9435 31.2471 21.9675C31.2454 22.0029 31.2319 22.0368 31.2088 22.0636C31.1744 22.0894 31.1317 22.1014 31.0891 22.0973H30.9502H30.9023L30.7635 22.0588L30.6869 22.03L30.5193 21.9627L30.4331 21.929L30.165 21.7703H30.1267L29.7628 21.578L29.6383 21.5106L29.4228 21.3856L23.6771 17.8559C23.6086 17.8108 23.5317 17.7799 23.451 17.7651C23.3703 17.7503 23.2875 17.752 23.2075 17.7699C23.1275 17.7878 23.0519 17.8217 22.9851 17.8696C22.9184 17.9174 22.8619 17.9782 22.8189 18.0483C22.776 18.1185 22.7475 18.1966 22.7352 18.278C22.7228 18.3594 22.7269 18.4425 22.7471 18.5223C22.7673 18.6021 22.8032 18.677 22.8527 18.7426C22.9023 18.8082 22.9644 18.8632 23.0355 18.9042L28.446 22.2368L28.5705 22.3185L28.8052 22.4724L28.9584 22.5782L29.1499 22.708L29.284 22.8042L29.4372 22.9196L29.5521 23.0062L29.6766 23.1024L29.7676 23.1793L29.8633 23.2659L29.9351 23.3332L30.007 23.4053L30.0596 23.463L30.1075 23.5207L30.141 23.5736L30.1698 23.6217V23.6602C30.1698 23.6602 30.1698 23.689 30.1698 23.7035V23.7323C30.1704 23.7435 30.1704 23.7548 30.1698 23.766V23.79H30.1458H30.1171H30.0788H30.0405H30.0022C27.1437 23.2514 23.6819 22.7705 20.7468 23.0014C20.5849 23.0148 20.435 23.0923 20.33 23.2167C20.2249 23.3412 20.1734 23.5024 20.1866 23.665C20.1938 23.7443 20.2165 23.8213 20.2534 23.8918C20.2903 23.9622 20.3406 24.0247 20.4015 24.0756C20.4624 24.1265 20.5327 24.1648 20.6084 24.1885C20.6841 24.2121 20.7637 24.2205 20.8426 24.2132Z" fill="white"/>
<path d="M70.2985 46.6466L70.1405 46.5408L69.9537 46.4109L69.8149 46.3148L69.6617 46.1993L69.5515 46.1128L69.427 46.0166L69.3361 45.9397L69.2355 45.8531L69.1685 45.7858C69.1422 45.7642 69.1181 45.7401 69.0967 45.7137L69.044 45.6559L68.9961 45.5982L68.9626 45.5453L68.9339 45.4973V45.4588C68.9316 45.4444 68.9316 45.4298 68.9339 45.4155V45.3722C68.9333 45.361 68.9333 45.3498 68.9339 45.3386H68.9626C68.9752 45.336 68.9883 45.336 69.0009 45.3386H69.0392H69.0727C71.5912 45.8885 74.1569 46.1912 76.7337 46.2426C77.2795 46.2426 77.8158 46.2426 78.3329 46.1849C78.4149 46.1808 78.4954 46.1602 78.5693 46.1243C78.6433 46.0884 78.7093 46.0379 78.7635 45.9758C78.8176 45.9138 78.8588 45.8414 78.8846 45.763C78.9103 45.6846 78.9201 45.6019 78.9134 45.5196C78.9066 45.4374 78.8835 45.3573 78.8453 45.2842C78.8071 45.2112 78.7547 45.1465 78.6912 45.0942C78.6277 45.0419 78.5543 45.0029 78.4755 44.9796C78.3966 44.9563 78.3139 44.9492 78.2323 44.9587C76.5546 45.0631 74.8707 45.0019 73.2048 44.7759L70.332 44.295C68.0859 43.8519 65.8656 43.2852 63.6814 42.5975L57.6723 38.8803C57.5341 38.8005 57.3704 38.7779 57.2158 38.8173C57.0613 38.8567 56.9282 38.9551 56.8447 39.0915C56.7612 39.228 56.7339 39.3917 56.7686 39.548C56.8034 39.7043 56.8974 39.8408 57.0307 39.9286L63.0589 43.6459C64.5833 45.2024 66.0219 46.8415 67.3682 48.5557L69.3935 51.3544C70.2867 52.6688 71.0516 54.0666 71.6774 55.5285C71.7238 55.6408 71.8021 55.7368 71.9027 55.8044C72.0032 55.872 72.1214 55.9082 72.2424 55.9084C72.3231 55.9087 72.403 55.8923 72.4771 55.8603C72.551 55.8297 72.6182 55.7848 72.6748 55.7282C72.7314 55.6715 72.7764 55.6041 72.8071 55.53C72.8378 55.4558 72.8536 55.3764 72.8536 55.2961C72.8537 55.2158 72.838 55.1362 72.8074 55.062C71.6918 52.3306 69.7 49.4886 67.8853 47.2236C67.8835 47.1996 67.8835 47.1755 67.8853 47.1515C67.888 47.1177 67.9014 47.0857 67.9236 47.0601C67.9596 47.034 68.0039 47.0221 68.0481 47.0265C68.0943 47.0227 68.1407 47.0227 68.1869 47.0265H68.2348L68.3737 47.0649L68.4455 47.0938L68.6179 47.1611L68.704 47.1948L68.9722 47.3246H69.0105L69.3744 47.517L69.4989 47.5843L69.7143 47.7093L75.46 51.2342C75.5282 51.2764 75.604 51.3046 75.6831 51.3173C75.7621 51.3299 75.8429 51.3268 75.9207 51.308C75.9986 51.2892 76.072 51.2552 76.1367 51.2079C76.2015 51.1606 76.2562 51.1009 76.2979 51.0322C76.3399 50.9638 76.368 50.8876 76.3806 50.8082C76.3932 50.7288 76.3901 50.6477 76.3714 50.5695C76.3527 50.4913 76.3189 50.4176 76.2717 50.3526C76.2246 50.2876 76.1652 50.2326 76.0968 50.1907L70.6911 46.8582L70.557 46.7716L70.2985 46.6466Z" fill="white"/>
<path d="M26.8133 37.197C28.9421 36.3868 31.1126 35.6918 33.3155 35.1148H40.3875C40.5401 35.1012 40.682 35.0307 40.7855 34.9172C40.8889 34.8037 40.9462 34.6555 40.9462 34.5016C40.9462 34.3478 40.8889 34.1995 40.7855 34.086C40.682 33.9726 40.5401 33.9021 40.3875 33.8885H33.3107C31.2027 33.3611 29.1248 32.719 27.0862 31.965L23.9404 30.6329C22.4922 29.983 21.11 29.1939 19.8131 28.2766C19.6823 28.1809 19.519 28.1414 19.3592 28.1666C19.1994 28.1919 19.0561 28.2799 18.9608 28.4112C18.8656 28.5426 18.8262 28.7066 18.8514 28.8671C18.8765 29.0276 18.9641 29.1715 19.0949 29.2672C21.4506 31.0128 24.6299 32.3881 27.3639 33.3499L27.3926 33.3836V33.422C27.3973 33.4394 27.3973 33.4576 27.3926 33.4749C27.3865 33.4914 27.3766 33.5062 27.3639 33.5182L27.3208 33.5519H27.2969L27.2011 33.5952H27.1772L27.0623 33.6288H27.0144L26.8851 33.6577H26.8276L26.6074 33.6913H26.5643L26.3441 33.7154H26.2483H26.0089H25.9227H25.554H18.8076C18.7229 33.7078 18.6376 33.7181 18.557 33.7455C18.4764 33.7729 18.4024 33.8168 18.3397 33.8745C18.277 33.9321 18.2269 34.0023 18.1926 34.0804C18.1583 34.1586 18.1406 34.2431 18.1406 34.3285C18.1406 34.4139 18.1583 34.4984 18.1926 34.5766C18.2269 34.6547 18.277 34.7249 18.3397 34.7826C18.4024 34.8402 18.4764 34.8842 18.557 34.9115C18.6376 34.9389 18.7229 34.9492 18.8076 34.9416H25.147H25.4774H25.5732H25.9371H26.028H26.2674H26.3632H26.5739H26.6313L26.8468 34.9753H26.9043L27.0335 35.0042H27.0862L27.1963 35.0426H27.2203L27.316 35.0859H27.34L27.3831 35.1196C27.3943 35.1328 27.4039 35.1474 27.4118 35.1628C27.4166 35.1785 27.4166 35.1953 27.4118 35.2109C27.4135 35.2237 27.4135 35.2366 27.4118 35.2494L27.3639 35.3023C24.606 36.3025 21.4028 37.7067 19.0183 39.4523C18.9138 39.5281 18.8359 39.6352 18.7959 39.7582C18.7559 39.8813 18.7559 40.0139 18.7959 40.137C18.8358 40.2601 18.9137 40.3672 19.0182 40.4429C19.1227 40.5187 19.2485 40.5591 19.3774 40.5584C19.5076 40.5585 19.6347 40.5182 19.7413 40.443C21.1092 39.4758 22.5687 38.6463 24.0984 37.9664L26.8133 37.197Z" fill="white"/>
<path d="M59.3288 10.6043L58.8931 13.5618C58.5001 15.8131 57.9854 18.0413 57.3513 20.2364L53.7363 26.3437C53.6537 26.4835 53.6294 26.6504 53.6689 26.8081C53.7084 26.9657 53.8083 27.1013 53.947 27.1852C54.0428 27.2417 54.1519 27.2716 54.263 27.2718C54.3683 27.2722 54.4719 27.2449 54.5635 27.1926C54.6551 27.1402 54.7314 27.0648 54.7849 26.9736L58.4143 20.8472C59.9475 19.2998 61.5635 17.8373 63.255 16.4663L66.0034 14.4033C67.2999 13.4855 68.6822 12.6963 70.1307 12.047C70.2798 11.9825 70.3973 11.8612 70.4575 11.7097C70.5176 11.5582 70.5155 11.389 70.4515 11.2391C70.3863 11.0902 70.2654 10.973 70.1149 10.9127C69.9645 10.8524 69.7965 10.8539 69.6471 10.9169C66.9466 12.0999 64.16 14.1388 61.9096 15.995H61.8473H61.7899C61.771 15.9914 61.7541 15.9812 61.742 15.9662C61.7303 15.9515 61.7207 15.9353 61.7133 15.9181C61.7155 15.9103 61.7155 15.9019 61.7133 15.8941C61.7133 15.8941 61.7133 15.8604 61.7133 15.8364V15.7979C61.7112 15.7755 61.7112 15.753 61.7133 15.7306C61.711 15.713 61.711 15.6952 61.7133 15.6777C61.7115 15.6472 61.7115 15.6167 61.7133 15.5863C61.7112 15.5671 61.7112 15.5478 61.7133 15.5286C61.7133 15.4901 61.7133 15.4468 61.7516 15.4036V15.3459C61.7994 15.2112 61.8713 15.0525 61.9574 14.865L62.0005 14.7736C62.0356 14.7127 62.0692 14.6454 62.1011 14.5716L62.2447 14.4514L62.3596 14.235C62.3705 14.21 62.3833 14.1859 62.3979 14.1629L65.8358 8.34418C65.919 8.20388 65.9432 8.03615 65.9033 7.87788C65.8633 7.71961 65.7624 7.58376 65.6227 7.50022C65.483 7.41669 65.316 7.3923 65.1584 7.43243C65.0008 7.47256 64.8656 7.57393 64.7824 7.71422L61.5457 13.1819L61.3398 13.5137L61.2919 13.581L61.1291 13.8359L61.0764 13.9128L60.9041 14.1581L60.7413 14.3745L60.6982 14.4274L60.5881 14.562L60.5545 14.6005L60.4348 14.7351L60.3487 14.8121L60.2673 14.865C60.2452 14.8787 60.2209 14.8884 60.1954 14.8938H60.1476C60.1189 14.8918 60.0919 14.8799 60.0709 14.8602C60.0501 14.8315 60.0354 14.7987 60.0279 14.764C60.0301 14.7545 60.0301 14.7446 60.0279 14.7351C60.5785 11.8498 61.019 8.36341 60.7413 5.41559C60.7143 5.26351 60.6313 5.1272 60.5088 5.03372C60.3864 4.94023 60.2334 4.8964 60.0803 4.91093C59.9272 4.92547 59.7851 4.99729 59.6822 5.11216C59.5794 5.22703 59.5233 5.37654 59.5251 5.531C59.6262 7.22448 59.5604 8.92384 59.3288 10.6043Z" fill="white"/>
<path d="M33.3237 14.2882L35.6704 15.9337C37.4304 17.2391 39.1181 18.6394 40.7261 20.1284L44.402 25.8654C44.4862 25.9967 44.6188 26.0893 44.771 26.123C44.9231 26.1567 45.0824 26.1288 45.214 26.0454C45.3037 25.987 45.3763 25.9059 45.4244 25.8103C45.4701 25.7197 45.4913 25.6187 45.486 25.5174C45.4806 25.416 45.4488 25.3179 45.3938 25.2327L41.7075 19.4749C41.0421 17.4895 40.4852 15.4693 40.0392 13.4233L39.4556 10.1697C39.2277 8.65853 39.1471 7.12882 39.2149 5.60208C39.2238 5.44591 39.1705 5.29256 39.0666 5.1757C38.9628 5.05883 38.8168 4.988 38.6608 4.97876C38.505 4.97101 38.3525 5.02479 38.236 5.12853C38.1195 5.23227 38.0484 5.37766 38.038 5.53337C37.8881 8.36783 38.4346 11.6441 39.0556 14.38L39.004 14.4831C38.9927 14.4978 38.9767 14.508 38.9586 14.512C38.941 14.5157 38.923 14.5171 38.905 14.5161C38.8993 14.5108 38.8921 14.5072 38.8844 14.5057C38.8844 14.5057 38.8556 14.4913 38.835 14.481L38.802 14.4644C38.7819 14.4566 38.7626 14.4469 38.7443 14.4355C38.7283 14.4299 38.7131 14.4223 38.699 14.4128C38.6721 14.4013 38.646 14.3882 38.6207 14.3736C38.6034 14.3671 38.5868 14.3588 38.5712 14.3488C38.5383 14.3323 38.5012 14.3137 38.4806 14.2621L38.4311 14.2373C38.3364 14.1382 38.2313 14.0082 38.1077 13.8534L38.048 13.7771C38.0109 13.7207 37.9677 13.6629 37.9183 13.6037L37.8771 13.4283L37.7412 13.2364C37.7245 13.2163 37.7093 13.1949 37.6959 13.1724L34.1909 7.71187C34.1065 7.57997 33.9732 7.48701 33.8203 7.45347C33.6675 7.41992 33.5076 7.44852 33.3758 7.53298C33.244 7.61745 33.1511 7.75085 33.1176 7.90384C33.0841 8.05684 33.1127 8.21689 33.1971 8.3488L36.4879 13.4853L36.6836 13.8052L36.7206 13.8754L36.8689 14.1251L36.9121 14.2035L37.048 14.4573L37.1633 14.6905L37.1901 14.7503L37.258 14.903L37.2765 14.9484L37.3403 15.1094L37.3691 15.2167L37.3794 15.3095C37.3816 15.3344 37.3795 15.3596 37.3732 15.3838L37.3525 15.425C37.3385 15.4488 37.3166 15.467 37.2907 15.4766C37.2571 15.4822 37.2227 15.4808 37.1897 15.4724C37.1825 15.4664 37.1741 15.4621 37.165 15.46C34.9296 13.7465 32.1316 11.8697 29.4858 10.843C29.3438 10.801 29.1912 10.8139 29.0583 10.8793C28.9254 10.9446 28.822 11.0576 28.7684 11.1957C28.7149 11.3339 28.7152 11.4871 28.7693 11.6251C28.8235 11.763 28.9274 11.8755 29.0606 11.9403C30.5554 12.5805 31.9834 13.367 33.3237 14.2882Z" fill="white"/>
<path d="M22.9828 44.9921C25.1984 44.9641 27.408 44.7567 29.5904 44.3718H29.643L29.6861 44.4102C29.688 44.4214 29.688 44.4328 29.6861 44.4439C29.6861 44.4439 29.6861 44.4439 29.6861 44.4728C29.6885 44.4871 29.6885 44.5017 29.6861 44.516C29.6874 44.5288 29.6874 44.5417 29.6861 44.5545L29.6622 44.6026L29.6287 44.6459L29.5808 44.7084L29.5281 44.7613L29.4563 44.8334L29.3845 44.8959L29.2839 44.9777L29.1882 45.0498L29.0637 45.1412L28.944 45.2277L28.786 45.3335L28.6471 45.4249L28.4508 45.5499L28.288 45.6509H28.2449L22.3795 49.0123C22.2379 49.0927 22.1339 49.2262 22.0904 49.3836C22.0468 49.5409 22.0673 49.7092 22.1473 49.8514C22.2273 49.9937 22.3603 50.0981 22.517 50.1419C22.6737 50.1856 22.8412 50.165 22.9828 50.0847L28.4843 47.007L28.5801 46.9541L28.7285 46.8628C28.8339 46.8099 28.9296 46.757 29.0254 46.7137L29.169 46.6415L29.4755 46.4925L29.5425 46.4636L29.8489 46.3338L29.9303 46.3001L30.1075 46.2376H30.1889L30.3182 46.2039H30.3804H30.4905H30.5576H30.6054H30.6342C30.6342 46.2039 30.6342 46.2039 30.6629 46.2039V46.2328C30.6629 46.2328 30.6629 46.2328 30.6629 46.2616V46.2953C30.6652 46.3064 30.6652 46.3179 30.6629 46.329C30.6651 46.3433 30.6651 46.3579 30.6629 46.3723C30.6645 46.3834 30.6645 46.3947 30.6629 46.4059C28.7477 48.6276 26.6218 51.4167 25.396 54.1001C25.3622 54.1736 25.3433 54.2531 25.3402 54.3341C25.337 54.415 25.3499 54.4957 25.3779 54.5717C25.4059 54.6476 25.4486 54.7173 25.5035 54.7766C25.5583 54.836 25.6243 54.8839 25.6977 54.9176C25.777 54.9554 25.8636 54.9751 25.9514 54.9753C26.0687 54.9748 26.1833 54.9406 26.2817 54.8766C26.3802 54.8127 26.4583 54.7218 26.5068 54.6146C27.2331 53.1 28.1072 51.6615 29.1163 50.3203L30.955 47.9736C32.4185 46.2232 33.977 44.5552 35.6233 42.9772L41.8048 39.5196C41.9374 39.4354 42.0329 39.3033 42.0714 39.1505C42.11 38.9977 42.0887 38.8359 42.0119 38.6984C41.9352 38.5608 41.8088 38.4582 41.6589 38.4114C41.509 38.3647 41.347 38.3776 41.2062 38.4473L35.044 41.9193C32.946 42.4859 30.8185 42.9354 28.6711 43.2657L25.2667 43.6697C23.6872 43.8061 22.0982 43.79 20.5217 43.6216C20.4407 43.6092 20.3579 43.6132 20.2784 43.6335C20.1989 43.6538 20.1242 43.6899 20.0589 43.7397C19.9935 43.7895 19.9388 43.8519 19.8979 43.9234C19.857 43.9948 19.8309 44.0737 19.8209 44.1555C19.811 44.2373 19.8175 44.3202 19.8401 44.3994C19.8626 44.4787 19.9008 44.5525 19.9523 44.6166C20.0038 44.6807 20.0676 44.7338 20.14 44.7727C20.2123 44.8116 20.2916 44.8355 20.3733 44.843C21.2395 44.9445 22.1108 44.9942 22.9828 44.9921Z" fill="white"/>
<path d="M31.9322 57.5796C33.837 56.4428 35.6473 55.1535 37.3457 53.7243L37.3913 53.6978L37.4477 53.7095C37.4549 53.7182 37.4606 53.7281 37.4645 53.7387C37.4645 53.7387 37.4645 53.7387 37.4789 53.7636C37.488 53.7749 37.4953 53.7876 37.5004 53.8011C37.5079 53.8116 37.5143 53.8227 37.5196 53.8344L37.5228 53.8881L37.5153 53.9424L37.505 54.0206L37.4594 54.1914L37.4283 54.2816L37.3819 54.4029L37.3349 54.5135L37.2726 54.6551L37.212 54.7902L37.1278 54.9611L37.0531 55.11L36.9453 55.3169L36.8546 55.4861L36.8173 55.5077L33.4111 61.3642C33.3285 61.5048 33.3049 61.6727 33.3456 61.8309C33.3862 61.989 33.4877 62.1245 33.6278 62.2075C33.7679 62.2905 33.935 62.3142 34.0925 62.2734C34.25 62.2326 34.3849 62.1306 34.4675 61.9899L37.6997 56.5619L37.7563 56.468L37.8394 56.3143C37.9043 56.2156 37.9609 56.1217 38.0223 56.0362L38.1108 55.9016L38.3019 55.6186L38.3456 55.5599L38.5463 55.2936L38.6001 55.2236L38.7224 55.0805L38.7929 55.0396L38.8881 54.9455L39.1618 54.7868C39.1618 54.7868 39.1618 54.7868 39.1866 54.7724L39.201 54.7974C39.201 54.7974 39.201 54.7974 39.2154 54.8224L39.2321 54.8515C39.2397 54.86 39.2454 54.8699 39.2489 54.8807C39.258 54.892 39.2652 54.9046 39.2704 54.9182C39.2773 54.927 39.283 54.9369 39.2872 54.9473C38.7346 57.8331 38.282 61.3161 38.5564 64.2555C38.5638 64.3362 38.5869 64.4146 38.6245 64.4862C38.6621 64.5579 38.7134 64.6213 38.7755 64.673C38.8376 64.7247 38.9092 64.7636 38.9863 64.7875C39.0633 64.8113 39.1443 64.8197 39.2246 64.812C39.3121 64.805 39.397 64.7785 39.4731 64.7345C39.5744 64.6753 39.6566 64.5881 39.7101 64.4833C39.7635 64.3785 39.7859 64.2605 39.7746 64.1433C39.6495 62.4669 39.6903 60.7822 39.8966 59.1139L40.3206 56.1583C40.7166 53.9075 41.2359 51.6803 41.8761 49.487L45.508 43.3885C45.581 43.249 45.5979 43.0866 45.5552 42.9349C45.5125 42.7832 45.4135 42.6538 45.2786 42.5732C45.1437 42.4927 44.9831 42.4672 44.8301 42.502C44.677 42.5368 44.543 42.6293 44.4559 42.7604L40.8477 48.8617C39.3129 50.4059 37.6941 51.8636 35.9989 53.2281L33.2518 55.2874C31.9517 56.1988 30.5676 56.9827 29.1185 57.6286C29.0421 57.6585 28.9725 57.7036 28.9137 57.7611C28.855 57.8186 28.8083 57.8873 28.7765 57.9633C28.7447 58.0392 28.7284 58.1208 28.7285 58.2032C28.7287 58.2856 28.7453 58.3671 28.7774 58.4429C28.8095 58.5187 28.8565 58.5873 28.9154 58.6445C28.9744 58.7018 29.0442 58.7466 29.1208 58.7762C29.1973 58.8059 29.279 58.8198 29.361 58.8172C29.443 58.8146 29.5236 58.7954 29.5981 58.7609C30.3987 58.4138 31.1781 58.0194 31.9322 57.5796Z" fill="white"/>
<path d="M87.5192 9.04174L85.6933 11.3514C84.2509 13.0793 82.7159 14.7271 81.0951 16.2876L75.0033 19.7127C74.864 19.7911 74.7612 19.9217 74.7174 20.0759C74.6737 20.23 74.6925 20.3953 74.7698 20.5356C74.824 20.6313 74.9026 20.7108 74.9975 20.766C75.0873 20.8185 75.1893 20.8465 75.2933 20.8471C75.3973 20.8478 75.4996 20.8211 75.5901 20.7698L81.7036 17.3354C83.7748 16.7732 85.875 16.3246 87.9948 15.9914L91.3582 15.5906C92.9177 15.4488 94.4872 15.4594 96.0446 15.6221C96.2038 15.6409 96.3639 15.5955 96.4897 15.4959C96.6156 15.3964 96.6969 15.2508 96.7159 15.0911C96.7333 14.9317 96.6876 14.7717 96.5885 14.6458C96.4895 14.5198 96.3452 14.4379 96.1865 14.4177C93.2966 14.0907 89.9123 14.452 87.0762 14.9228L86.9739 14.8635C86.9596 14.8511 86.9501 14.834 86.9471 14.8152C86.9444 14.7969 86.9441 14.7783 86.9462 14.7599C86.952 14.7543 86.9561 14.7472 86.958 14.7394C86.958 14.7394 86.9746 14.7106 86.9864 14.6901L87.0053 14.6572C87.0146 14.6371 87.0257 14.6179 87.0384 14.5997C87.0451 14.5836 87.0538 14.5685 87.0644 14.5546C87.0778 14.5277 87.0928 14.5017 87.1093 14.4766C87.1169 14.4592 87.1265 14.4426 87.1376 14.4273C87.1565 14.3944 87.1778 14.3575 87.2318 14.3395L87.2602 14.2902C87.3673 14.1989 87.5067 14.099 87.6725 13.9815L87.7543 13.9248C87.8142 13.8902 87.876 13.8493 87.9395 13.8022L88.1214 13.7706L88.3259 13.6427C88.3475 13.6268 88.3703 13.6125 88.3941 13.6001L94.1926 10.3337C94.3327 10.2551 94.4359 10.1239 94.4795 9.96891C94.5231 9.81398 94.5036 9.64801 94.4252 9.50751C94.3469 9.36701 94.2161 9.26349 94.0616 9.21973C93.9072 9.17597 93.7418 9.19555 93.6017 9.27417L88.1476 12.3404L87.8086 12.5218L87.7345 12.5556L87.4701 12.6926L87.3873 12.7322L87.1194 12.8563L86.8739 12.9605L86.811 12.9843L86.6507 13.0448L86.6032 13.061L86.4347 13.1167L86.3232 13.1398L86.2276 13.1446C86.202 13.1454 86.1764 13.1417 86.152 13.1337L86.1111 13.11C86.0876 13.0941 86.0703 13.0705 86.0621 13.0433C86.0584 13.0085 86.0619 12.9732 86.0726 12.9399C86.0791 12.9329 86.084 12.9244 86.0867 12.9152C87.9754 10.7241 90.0654 7.96508 91.2766 5.31039C91.3282 5.16715 91.3243 5.00967 91.2656 4.86921C91.2068 4.72875 91.0976 4.61558 90.9595 4.55217C90.8215 4.48875 90.6647 4.47973 90.5204 4.5269C90.376 4.57406 90.2546 4.67396 90.1802 4.80676C89.4344 6.30288 88.543 7.72143 87.5192 9.04174Z" fill="white"/>
<path d="M72.0686 37.0983C69.9397 36.2882 67.7692 35.5931 65.5663 35.0161H58.4944C58.3418 35.0025 58.1998 34.9321 58.0964 34.8186C57.993 34.7051 57.9356 34.5568 57.9356 34.403C57.9356 34.2492 57.993 34.1009 58.0964 33.9874C58.1998 33.8739 58.3418 33.8035 58.4944 33.7899H65.5711C67.6791 33.2625 69.757 32.6203 71.7956 31.8663L74.9414 30.5343C76.3896 29.8844 77.7719 29.0953 79.0687 28.1779C79.1995 28.0823 79.3628 28.0427 79.5226 28.068C79.6825 28.0932 79.8258 28.1812 79.921 28.3126C80.0162 28.444 80.0556 28.6079 80.0305 28.7685C80.0053 28.929 79.9177 29.0729 79.7869 29.1686C77.4312 30.9142 74.2519 32.2895 71.5179 33.2513L71.4892 33.2849V33.3234C71.4845 33.3407 71.4845 33.359 71.4892 33.3763C71.4954 33.3927 71.5052 33.4075 71.5179 33.4196L71.561 33.4532H71.585L71.6807 33.4965H71.7047L71.8196 33.5302H71.8675L71.9967 33.559H72.0542L72.2744 33.5927H72.3175L72.5378 33.6167H72.6335H72.873H72.9591H73.3278H80.0742C80.1589 33.6092 80.2443 33.6195 80.3248 33.6468C80.4054 33.6742 80.4794 33.7182 80.5421 33.7758C80.6049 33.8335 80.655 33.9036 80.6892 33.9818C80.7235 34.06 80.7412 34.1445 80.7412 34.2299C80.7412 34.3153 80.7235 34.3998 80.6892 34.4779C80.655 34.5561 80.6049 34.6263 80.5421 34.6839C80.4794 34.7416 80.4054 34.7855 80.3248 34.8129C80.2443 34.8403 80.1589 34.8505 80.0742 34.843H73.7348H73.4044H73.3087H72.9448H72.8538H72.6144H72.5186H72.308H72.2505L72.035 34.8767H71.9776L71.8483 34.9055H71.7956L71.6855 34.944H71.6616L71.5658 34.9873H71.5419L71.4988 35.0209C71.4876 35.0342 71.4779 35.0487 71.47 35.0642C71.4652 35.0799 71.4652 35.0966 71.47 35.1123C71.4683 35.1251 71.4683 35.138 71.47 35.1508L71.5179 35.2037C74.2759 36.2039 77.4791 37.6081 79.8635 39.3537C79.9681 39.4294 80.0459 39.5365 80.0859 39.6596C80.1259 39.7827 80.1259 39.9153 80.0859 40.0384C80.046 40.1614 79.9681 40.2685 79.8636 40.3443C79.7591 40.42 79.6333 40.4604 79.5044 40.4597C79.3742 40.4598 79.2471 40.4195 79.1405 40.3443C77.7726 39.3772 76.3132 38.5477 74.7834 37.8678L72.0686 37.0983Z" fill="white"/>
<path d="M65.311 54.3358L62.9644 52.6904C61.2043 51.385 59.5166 49.9847 57.9087 48.4957L54.2327 42.7586C54.1485 42.6273 54.0159 42.5348 53.8638 42.501C53.7117 42.4673 53.5524 42.4952 53.4207 42.5787C53.3311 42.637 53.2585 42.7181 53.2104 42.8137C53.1647 42.9043 53.1434 43.0053 53.1488 43.1066C53.1542 43.208 53.1859 43.3061 53.241 43.3914L56.9273 49.1491C57.5926 51.1345 58.1496 53.1547 58.5955 55.2007L59.1791 58.4544C59.407 59.9655 59.4876 61.4952 59.4199 63.0219C59.4109 63.1781 59.4642 63.3315 59.5681 63.4483C59.672 63.5652 59.818 63.636 59.974 63.6453C60.1297 63.653 60.2823 63.5992 60.3987 63.4955C60.5152 63.3918 60.5863 63.2464 60.5967 63.0907C60.7467 60.2562 60.2002 56.9799 59.5792 54.244L59.6308 54.1409C59.642 54.1262 59.6581 54.116 59.6761 54.112C59.6937 54.1083 59.7118 54.1069 59.7297 54.108C59.7355 54.1133 59.7426 54.1169 59.7503 54.1183C59.7503 54.1183 59.7792 54.1327 59.7998 54.1431L59.8328 54.1596C59.8528 54.1675 59.8721 54.1771 59.8905 54.1885C59.9065 54.1941 59.9217 54.2017 59.9358 54.2112C59.9626 54.2227 59.9888 54.2358 60.0141 54.2504C60.0314 54.2569 60.048 54.2652 60.0635 54.2752C60.0965 54.2918 60.1336 54.3103 60.1542 54.3619L60.2036 54.3867C60.2984 54.4858 60.4034 54.6158 60.527 54.7706L60.5868 54.847C60.6238 54.9034 60.6671 54.9612 60.7165 55.0203L60.7576 55.1957L60.8936 55.3876C60.9103 55.4077 60.9255 55.4291 60.9389 55.4516L64.4439 60.9122C64.5283 61.0441 64.6616 61.137 64.8144 61.1706C64.9673 61.2041 65.1272 61.1755 65.259 61.091C65.3908 61.0066 65.4836 60.8732 65.5171 60.7202C65.5507 60.5672 65.5221 60.4071 65.4377 60.2752L62.1468 55.1387L61.9512 54.8188L61.9141 54.7487L61.7659 54.499L61.7226 54.4205L61.5867 54.1667L61.4714 53.9335L61.4447 53.8737L61.3768 53.721L61.3582 53.6756L61.2944 53.5147L61.2656 53.4074L61.2554 53.3145C61.2531 53.2896 61.2552 53.2645 61.2616 53.2403L61.2822 53.199C61.2963 53.1752 61.3181 53.157 61.3441 53.1475C61.3777 53.1418 61.4121 53.1432 61.4451 53.1517C61.4522 53.1577 61.4607 53.1619 61.4698 53.164C63.7052 54.8775 66.5031 56.7543 69.149 57.781C69.291 57.823 69.4436 57.8101 69.5764 57.7448C69.7093 57.6794 69.8128 57.5665 69.8663 57.4283C69.9199 57.2901 69.9195 57.1369 69.8654 56.999C69.8113 56.861 69.7073 56.7485 69.5742 56.6837C68.0794 56.0435 66.6514 55.2571 65.311 54.3358Z" fill="white"/>
<path d="M39.4332 86.3904C39.3396 86.3795 39.2447 86.3904 39.1559 86.4221C39.0671 86.4537 38.9867 86.5054 38.9209 86.5731C38.8883 86.5996 38.8507 86.6192 38.8104 86.6308C38.7701 86.6424 38.7279 86.6456 38.6863 86.6404C38.5347 86.6403 38.3854 86.604 38.2505 86.5346C37.7191 86.2269 37.5419 85.6161 37.2163 85.1304C37.0749 84.812 36.915 84.502 36.7375 84.2023C36.509 83.8854 36.3462 83.5257 36.2587 83.1444C36.1529 82.7741 35.9914 82.4222 35.7799 82.1009C35.6854 81.9896 35.5668 81.9014 35.4332 81.8431C35.2996 81.7847 35.1545 81.7578 35.009 81.7642C34.7933 81.7652 34.5805 81.815 34.3865 81.91C34.1926 82.0049 34.0224 82.1424 33.8886 82.3125C33.6587 82.6972 33.4587 83.0991 33.2901 83.5147C33.0651 83.9955 32.8448 84.4764 32.6245 84.9573C32.4043 85.4382 32.184 86.0345 31.9111 86.5442C31.5568 87.1934 31.1642 87.8186 30.7572 88.4293C30.6868 88.4812 30.5999 88.5052 30.513 88.4966C30.4522 88.504 30.3908 88.4886 30.3406 88.4533C30.1414 88.1888 29.9802 87.8974 29.8618 87.5878C29.7086 87.155 29.632 86.6981 29.5027 86.2557C29.3734 85.8133 29.158 85.2939 29.0239 84.813C28.818 84.0581 28.66 83.2886 28.4494 82.5337C28.2387 81.7787 28.0041 81.1631 27.779 80.4803C27.7196 80.2872 27.5991 80.1188 27.4358 80.0008C27.2725 79.8827 27.0752 79.8215 26.8741 79.8263C26.7083 79.8316 26.5454 79.8708 26.3953 79.9417C25.7441 80.2495 25.4855 80.9035 25.0594 81.3843C24.7499 81.7846 24.4729 82.2091 24.2311 82.6539C23.9869 83.053 23.7522 83.4618 23.532 83.8657C23.3117 84.2696 23.0005 84.8275 22.7132 85.2795C22.6748 85.3321 22.6261 85.3762 22.5701 85.4093C22.5142 85.4424 22.4521 85.4636 22.3876 85.4719C22.311 85.4719 22.1818 85.318 22.1626 85.2218C22.0238 84.4139 21.904 83.606 21.7796 82.8174C21.6934 82.2451 22.086 81.8845 22.4068 81.5382C22.5983 81.3314 22.742 81.1535 22.6558 80.9083C22.5696 80.663 22.402 80.3697 22.0716 80.3697H22.019C21.7522 80.3989 21.4891 80.4553 21.2337 80.538C20.9891 80.6334 20.7727 80.7898 20.6052 80.9926C20.4376 81.1955 20.3243 81.4379 20.2761 81.6969C20.3096 82.952 20.3719 84.2071 20.4245 85.4622C20.4245 85.5007 20.4245 85.5536 20.4245 85.5728C20.7549 85.8566 20.6352 86.2846 20.7549 86.6404C20.8399 87.1383 21.0491 87.6065 21.363 88.0013C21.5619 88.1863 21.8246 88.2863 22.0956 88.2802C22.2599 88.2802 22.4227 88.2475 22.5744 88.184C23.2543 87.9051 23.5033 87.2223 23.9055 86.7414C24.1782 86.339 24.4138 85.9125 24.6093 85.4671C24.9493 84.7986 25.2461 84.1158 25.6052 83.4666C25.8758 82.8312 26.2965 82.2716 26.831 81.8364C26.9028 82.1153 26.965 82.3173 27.0129 82.5481C27.1326 83.1011 27.2667 83.6493 27.3529 84.2071C27.4391 84.765 27.463 85.3084 27.5348 85.8614C27.5701 86.146 27.6277 86.4274 27.7072 86.7029C27.8556 87.1838 28.0663 87.6647 28.186 88.1456C28.3473 88.8128 28.5867 89.4585 28.8994 90.0691C29.034 90.325 29.2372 90.538 29.4859 90.6842C29.7346 90.8303 30.0191 90.9038 30.3071 90.8962C30.5954 90.9031 30.879 90.8227 31.1211 90.6654C31.9159 90.122 32.3181 89.2805 32.8352 88.5303C33.1524 88.0047 33.4277 87.4548 33.6588 86.8857C33.8599 86.4577 34.037 86.0153 34.2477 85.5921C34.4584 85.1689 34.5398 84.6303 35.0234 84.3803C35.1574 84.6447 35.3155 84.8996 35.4304 85.1785C35.6841 85.7652 35.8804 86.3904 36.1821 86.953C36.3235 87.3533 36.5973 87.6927 36.9578 87.9148C37.3106 88.0882 37.6998 88.174 38.0925 88.1648H38.4373C39.0118 88.1263 39.1555 87.5156 39.5529 87.203C39.754 87.054 39.8019 86.6981 39.9647 86.3375C39.8471 86.3659 39.7264 86.3788 39.6056 86.3759L39.4332 86.3904Z" fill="white"/>
<path d="M53.4144 86.7799C52.8942 86.9578 52.4344 87.2794 52.0881 87.708C51.7242 88.0783 51.4321 88.5159 51.0874 88.9054C50.9677 89.04 50.8576 89.2276 50.6086 89.2276C50.5002 89.2232 50.394 89.1953 50.2973 89.1458C50.2543 88.5832 50.1872 87.9725 50.1824 87.3617C50.2291 87.0637 50.2914 86.7683 50.3692 86.4769C50.3692 86.3326 50.3692 86.1884 50.4075 86.0489C50.3518 85.9656 50.3175 85.8698 50.3075 85.77C50.2974 85.6702 50.3121 85.5695 50.35 85.4767C50.4027 85.3372 50.441 85.2026 50.4889 85.0631C50.5368 84.9237 50.4889 84.7698 50.5224 84.6255L50.6804 82.3846C50.6804 82.2644 50.6804 82.149 50.7043 82.0335C50.7026 82.0031 50.7026 81.9726 50.7043 81.9422C50.5742 80.0809 50.595 78.2121 50.7666 76.3543L50.7953 76.0129C50.9437 71.2425 50.9437 65.9528 50.3165 61.1054L50.2782 60.841C50.1872 60.211 50.0962 59.5859 50.0101 58.9607C49.9573 58.8995 49.8928 58.8497 49.8204 58.8141C49.748 58.7786 49.6692 58.7581 49.5887 58.7539C49.484 58.7567 49.3831 58.7938 49.3014 58.8597C49.3014 59.9946 49.2807 61.1295 49.2392 62.2644V62.577C49.536 70.2711 49.536 77.4844 48.7077 85.0006C48.7077 85.0823 48.7077 85.1881 48.7077 85.2987C48.6694 86.1643 48.655 87.0347 48.6742 87.9051C48.6796 87.9985 48.6649 88.092 48.631 88.1792C48.5971 88.2663 48.5449 88.3451 48.4779 88.4101C48.4779 88.6265 48.5305 88.8381 48.5736 89.0496C48.6966 89.5792 48.8847 90.0913 49.1338 90.574C49.2318 90.7217 49.3675 90.8402 49.5267 90.9172C49.6859 90.9942 49.8628 91.0268 50.0388 91.0117C50.2387 91.0162 50.4374 90.9788 50.6221 90.9017C50.8067 90.8247 50.9734 90.7099 51.1113 90.5644C51.6843 89.8738 52.2136 89.1479 52.6962 88.3908C53.0032 88.0158 53.3667 87.6913 53.7735 87.4291C54.032 87.2271 54.2523 87.0492 54.1757 86.5875L53.4144 86.7799Z" fill="white"/>
<path d="M73.4381 83.9955C73.0694 84.3562 72.7247 84.7409 72.3704 85.116C72.2882 85.2217 72.1969 85.3198 72.0975 85.4093C72.0196 85.4812 71.9203 85.5252 71.815 85.5344C71.6761 85.5344 71.5851 85.4142 71.5756 85.1833C71.5633 84.4403 71.4423 83.703 71.2165 82.9953C71.0627 82.407 70.946 81.8095 70.8669 81.2064C70.7896 80.9327 70.6985 80.663 70.594 80.3985C70.527 80.1869 70.4647 79.9705 70.3929 79.7541C70.2493 79.3358 70.096 78.9174 69.9524 78.499C69.8446 78.085 69.7053 77.6799 69.5358 77.2872C69.2758 76.6942 68.9684 76.1232 68.6165 75.5801C68.2377 75.0188 67.7304 74.557 67.137 74.2336C66.8957 74.116 66.6396 74.0318 66.3757 73.9835C66.2621 73.9607 66.1468 73.9478 66.031 73.9451C65.9299 73.9401 65.8292 73.9617 65.7389 74.0076C65.4442 74.1709 65.1948 74.4056 65.0134 74.6902C64.832 74.9749 64.7242 75.3006 64.6999 75.6378L65.2074 75.4166C65.2712 75.3812 65.341 75.3584 65.4133 75.3492H65.4708C65.6575 75.3492 65.8442 75.3108 66.0262 75.3108C66.1339 75.306 66.2414 75.3246 66.3414 75.3652C66.4414 75.4059 66.5315 75.4677 66.6055 75.5464C66.8306 75.7724 67.2424 75.859 67.3908 76.1187C67.6744 76.6569 67.9161 77.2164 68.1138 77.7921C68.3723 78.4558 68.4729 79.1675 68.7793 79.8311C69.1289 80.5909 69.1959 81.4517 69.4544 82.2596C69.6461 83.0679 69.7646 83.8919 69.8088 84.7217C69.8088 84.8708 69.8088 85.0246 69.8375 85.1785C69.895 85.7027 69.9572 86.222 70.0146 86.7462L69.8806 86.8328C69.7366 86.7886 69.5983 86.7272 69.4688 86.65C69.0794 86.3294 68.7011 86.0089 68.334 85.6883C67.7228 85.1527 67.0511 84.6911 66.3326 84.3129C65.8203 84.0388 65.2649 83.832 64.743 83.5868C64.5593 83.4978 64.358 83.4518 64.154 83.4521C63.8603 83.4652 63.5707 83.5269 63.297 83.6349C63.0799 83.7267 62.8875 83.8686 62.7353 84.0491C62.583 84.2295 62.4753 84.4435 62.4208 84.6736C62.2046 85.3885 62.2627 86.1587 62.5835 86.8328C62.8373 87.3617 63.0049 87.9196 63.2922 88.4437C63.5739 88.9695 63.9617 89.4306 64.4308 89.7974C64.8999 90.1642 65.44 90.4287 66.0166 90.574C66.1991 90.624 66.3876 90.6483 66.5768 90.6462C67.1063 90.6178 67.6274 90.5008 68.1186 90.2999C68.6182 90.1177 69.0806 89.8456 69.4832 89.4969C69.5396 89.4396 69.6141 89.4039 69.6938 89.3959C69.8136 89.3959 69.8854 89.5257 69.9428 89.6171C70.0918 89.8761 70.2276 90.1426 70.3498 90.4153C70.3906 90.4971 70.4537 90.5655 70.5318 90.6125C70.6143 90.6562 70.7066 90.6778 70.7999 90.675C70.9864 90.6686 71.168 90.6127 71.326 90.513C71.4841 90.4134 71.6132 90.2735 71.7001 90.1076C71.7868 89.8509 71.8415 89.5844 71.8628 89.3141C71.9634 88.7948 71.6713 88.2466 72.0735 87.7368C72.4449 87.2153 72.7885 86.6743 73.103 86.1162C73.1828 85.9747 73.2758 85.8411 73.3807 85.7171C73.6168 85.4639 73.7848 85.1543 73.8685 84.8177C73.9523 84.4811 73.9492 84.1286 73.8595 83.7936C73.709 83.8374 73.5667 83.9056 73.4381 83.9955ZM68.1712 88.8332C67.8237 88.9966 67.4592 89.1208 67.0844 89.2035C67.024 89.2229 66.961 89.2326 66.8976 89.2324C66.8204 89.2338 66.7438 89.2191 66.6726 89.1891C65.9893 88.9439 65.3704 88.546 64.8627 88.0254C64.3507 87.5097 64.0384 86.8278 63.9817 86.1018C63.9817 85.5969 64.154 85.2891 64.5131 85.2891C64.7962 85.2969 65.0748 85.3624 65.3319 85.4815C65.8597 85.7195 66.3619 86.0111 66.8306 86.3519C67.4195 86.8328 67.9414 87.3521 68.4873 87.8667C68.6022 87.9821 68.7554 88.1215 68.7697 88.2658C68.8464 88.6794 68.4154 88.6986 68.176 88.8332H68.1712Z" fill="white"/>
<path d="M45.0927 87.4579C44.9591 87.4467 44.8254 87.4772 44.7097 87.5452C44.594 87.6132 44.502 87.7154 44.4463 87.8378C44.3889 87.9436 44.1878 87.9773 43.9675 88.0975C43.8464 87.3781 43.7665 86.6524 43.7281 85.9239C43.7281 83.1732 43.8047 80.4178 43.8574 77.6623C43.8724 77.565 43.9031 77.4708 43.9484 77.3834C44.0065 77.2743 44.037 77.1525 44.0369 77.0287C44.0368 76.905 44.0063 76.7831 43.948 76.6741C43.8897 76.5651 43.8054 76.4723 43.7027 76.4039C43.6001 76.3355 43.4821 76.2937 43.3594 76.2822H43.2876C43.0857 76.3194 42.8992 76.4154 42.7511 76.5581C42.603 76.7009 42.4998 76.8842 42.4545 77.0852C42.3156 77.8402 42.1624 78.5904 42.0954 79.3502C41.9996 80.3841 41.9613 81.4324 41.9374 82.476C41.944 82.9953 41.9792 83.5138 42.0427 84.0292C42.1576 85.318 41.8608 86.626 42.2677 87.9051C42.3654 88.266 42.42 88.6373 42.4305 89.0112C42.438 89.2955 42.507 89.5748 42.6327 89.8298C42.7584 90.0847 42.9377 90.3091 43.1583 90.4875C43.3177 90.6386 43.5239 90.7303 43.7425 90.7472C43.7961 90.7484 43.8493 90.7384 43.8988 90.7177C43.9483 90.697 43.9929 90.6661 44.0298 90.6269C44.1351 90.5401 44.2207 90.4317 44.281 90.309C44.3413 90.1862 44.3748 90.052 44.3793 89.9152C44.3675 89.6283 44.4199 89.3424 44.5325 89.0785C44.6876 88.7578 44.8787 88.4561 45.1023 88.1792C45.2555 87.9677 45.5811 87.8571 45.4901 87.4916C45.3583 87.4734 45.2257 87.4621 45.0927 87.4579Z" fill="white"/>
<path d="M59.8017 87.4579C59.366 87.4579 59.0978 87.9388 58.7004 88.059C58.5759 87.8745 58.4806 87.6717 58.4179 87.4579C58.3335 86.8943 58.2871 86.3255 58.2791 85.7556C58.3078 83.1059 58.3605 80.4659 58.4131 77.8018C58.4131 77.6671 58.5233 77.5373 58.5424 77.4026C58.5759 77.1333 58.6908 76.7871 58.5711 76.6092C58.4747 76.5107 58.3589 76.4333 58.2312 76.382C58.1034 76.3307 57.9665 76.3065 57.829 76.311C57.489 76.311 57.0773 76.7919 57.0294 77.1526C56.9288 77.8787 56.7996 78.5952 56.7517 79.3358C56.6703 80.5668 56.632 81.8027 56.5985 83.0338C56.5985 83.3992 56.6799 83.7647 56.6942 84.1302C56.7565 85.3709 56.8043 86.6164 56.8618 87.857C56.8122 88.4858 56.9452 89.1156 57.2448 89.67C57.3872 89.9556 57.5624 90.2235 57.7667 90.4682C57.9546 90.629 58.1905 90.7221 58.4371 90.7327H58.5281C58.6908 90.7039 58.8489 90.3721 58.9255 90.1509C59.0883 89.6988 59.1601 89.1891 59.3372 88.7659C59.4824 88.5246 59.656 88.3018 59.8543 88.1023C59.9836 87.9292 60.2853 87.8186 60.1512 87.5445C60.0433 87.488 59.9234 87.4583 59.8017 87.4579Z" fill="white"/>
<path d="M46.4477 72.5072C46.3615 72.4255 46.261 72.3389 46.1413 72.2427C44.0681 70.8386 42.1576 68.9198 40.2472 69.8816C42.1624 70.8434 42.1624 73.7287 44.5564 73.1997C44.7355 73.2272 44.9164 73.24 45.0975 73.2382C45.6892 73.2337 46.2745 73.1145 46.8212 72.8871C46.7033 72.7541 46.5787 72.6273 46.4477 72.5072Z" fill="white"/>
<path d="M60.539 68.1793C60.3566 68.2091 60.176 68.2493 59.998 68.2995C58.71 68.5928 57.0773 68.5928 56.2681 70.2903C56.1819 70.4106 56.1005 70.5356 56.0191 70.6654C55.7797 71.0501 53.5293 72.1946 53.2947 72.589C53.4623 72.6803 55.6456 72.0215 55.8132 72.0792C56.1391 72.1759 56.4748 72.2356 56.8139 72.2572C56.9734 72.2674 57.1333 72.2674 57.2927 72.2572C59.5431 71.8532 61.851 69.7037 61.9084 67.3185C61.9419 67.1742 60.4959 68.3428 60.539 68.1793Z" fill="white"/>
<path d="M18.4662 84.0917C18.1167 84.4187 17.8055 84.7746 17.4847 85.1256C17.2931 85.3372 17.1112 85.5536 16.8957 85.7989C16.7664 85.6209 16.6515 85.5296 16.642 85.4286C16.6292 84.9608 16.5551 84.4968 16.4217 84.0484C16.3029 83.5763 16.2355 83.0926 16.2206 82.6058C16.1813 82.2713 16.1172 81.9402 16.0291 81.6152C15.9046 81.2016 15.7274 80.8073 15.579 80.4033C15.5168 80.2398 15.488 80.0667 15.4354 79.9225C15.2965 79.4993 15.1481 79.0809 15.0044 78.6625C14.9278 78.4317 14.8512 78.1817 14.765 77.9797C14.6214 77.6094 14.4777 77.2439 14.3197 76.8833C14.1946 76.5854 14.0441 76.299 13.8697 76.0273C13.7069 75.7868 13.5249 75.5464 13.343 75.3396C13.2665 75.3188 13.1875 75.3091 13.1084 75.3108H12.7445L12.5625 75.3637H12.5194V75.3925L12.4907 75.4983C12.5074 75.5986 12.5074 75.701 12.4907 75.8013C12.4907 75.8013 12.4907 75.8013 12.4907 75.7724C12.5278 76.0369 12.5936 76.2965 12.687 76.5466C12.7119 76.6269 12.7311 76.7089 12.7445 76.7919C12.9695 77.3113 13.1993 77.8258 13.3908 78.3596C13.6159 78.9751 13.7787 79.6099 13.9654 80.2398C14.0229 80.4274 14.066 80.6197 14.1234 80.8121C14.3155 81.3322 14.4754 81.8638 14.6022 82.4038C14.7602 83.2935 14.8368 84.2023 14.947 85.1016C14.947 85.1641 14.947 85.2314 14.947 85.2939C15.0092 85.8277 15.0715 86.3615 15.1433 87.0059C14.9541 86.9559 14.771 86.8849 14.5974 86.7943C14.2 86.4817 13.8074 86.1595 13.4339 85.8325C12.8352 85.3019 12.1744 84.8465 11.466 84.4764C10.925 84.1783 10.3313 83.9955 9.76149 83.7359C9.61083 83.6694 9.44711 83.6382 9.28268 83.6445C9.05283 83.6557 8.82404 83.683 8.59798 83.7262C8.40517 83.7628 8.22312 83.8428 8.06555 83.9603C7.90797 84.0777 7.77897 84.2295 7.68825 84.4043C7.50096 84.774 7.39349 85.1793 7.37286 85.5937C7.35224 86.008 7.41892 86.422 7.56855 86.8087C7.83352 87.5117 8.16712 88.1866 8.56447 88.8236C8.8608 89.4965 9.39222 90.0371 10.0583 90.3432C10.5249 90.5765 11.0236 90.7386 11.5379 90.8241H11.6815C12.1642 90.7906 12.6398 90.6886 13.094 90.5211C13.5334 90.3544 13.9463 90.1244 14.3197 89.8383C14.4634 89.7469 14.5974 89.6027 14.7459 89.6027C14.7928 89.6049 14.8385 89.6182 14.8793 89.6416C14.9201 89.665 14.9548 89.6978 14.9805 89.7373C15.0995 89.9139 15.193 90.1066 15.2582 90.3096C15.3779 90.5885 15.5072 90.9107 15.8376 90.9107H15.8615C16.1623 90.8707 16.438 90.7214 16.6365 90.491C16.8351 90.2605 16.9426 89.965 16.9388 89.6604C16.9388 89.2228 16.9149 88.7851 16.9388 88.3572C16.957 88.1241 17.0291 87.8985 17.1495 87.6984C17.4224 87.2752 17.7432 86.8857 18.0353 86.4769C18.1576 86.2291 18.3087 85.9966 18.4854 85.7844C19.0408 85.3036 19.0312 84.7024 18.9642 84.0148C18.7679 84.0292 18.562 84.0052 18.4662 84.0917ZM13.2281 88.9919C12.8795 89.1541 12.5153 89.2797 12.1412 89.367C12.0861 89.3787 12.0298 89.3835 11.9736 89.3815C11.918 89.3821 11.8628 89.3723 11.8108 89.3526C11.3688 89.1726 10.9427 88.9555 10.5372 88.7034C10.1841 88.4187 9.86297 88.0962 9.57954 87.7416C9.45164 87.5788 9.35281 87.395 9.28747 87.1982C9.1534 86.8809 9.04806 86.5539 8.93315 86.2365C8.97624 85.7556 9.18213 85.4911 9.57475 85.4911C9.67005 85.4933 9.7648 85.5062 9.85725 85.5296C10.2656 85.5892 10.6636 85.7057 11.0399 85.8758C11.4385 86.1379 11.8163 86.4305 12.1699 86.751C12.2865 86.8097 12.3986 86.8773 12.5051 86.953C12.8594 87.28 13.1993 87.6214 13.5393 87.9628C13.6638 88.0879 13.8553 88.2177 13.884 88.3668C13.9319 88.8332 13.477 88.8525 13.2281 88.9919Z" fill="white"/>
<path d="M9.80458 73.7479C9.90298 73.6665 10.0107 73.597 10.1254 73.5411C11.083 73.0362 12.2944 72.4207 12.8881 71.5166L12.8259 71.4877C12.5098 71.3627 12.2178 71.2329 11.9257 71.1078C11.624 71.1607 11.3224 71.2136 11.0255 71.2906C10.4701 71.43 9.91949 71.5887 9.36407 71.733C8.84773 71.8126 8.34078 71.9447 7.85104 72.1273C7.4481 72.3311 7.01727 72.4738 6.57263 72.5505C6.14649 72.6274 5.72992 72.7573 5.30857 72.8679C5.24965 72.8734 5.19034 72.8734 5.13141 72.8679C4.70528 72.8679 4.04452 72.6034 4.03973 72.387C4.01008 71.8496 4.0261 71.3107 4.08761 70.776C4.18878 70.2385 4.31986 69.7071 4.48024 69.1843C4.63345 68.6072 4.78189 68.0302 4.95904 67.4579C5.1362 66.8857 5.29421 66.3952 5.43785 65.8662C5.48094 65.7123 5.48573 65.5488 5.54319 65.3853C5.70598 64.9429 5.89272 64.5053 6.06509 64.0677C6.44335 63.1059 6.81203 62.1057 7.19986 61.1343C7.34127 60.7908 7.50111 60.4553 7.67867 60.1293C7.91808 59.6724 8.15748 59.2252 8.42082 58.7732C8.5118 58.6145 8.57404 58.4365 8.6698 58.2923C8.81124 58.0523 8.97134 57.824 9.14861 57.6094C9.55081 57.1285 9.96258 56.6957 10.3983 56.2678C10.834 55.8398 11.2171 55.532 11.6432 55.1858C11.9161 54.9646 12.2944 54.8347 12.4859 54.5654C12.5528 54.4537 12.6488 54.3624 12.7635 54.3013C12.8783 54.2403 13.0074 54.2119 13.1371 54.2192C13.2185 54.2192 13.3095 54.2192 13.41 54.2192C13.2807 54.5558 13.1706 54.8395 13.0509 55.1184C12.8785 55.5272 12.7253 55.9456 12.5146 56.3351C12.1747 56.9554 11.8108 57.5661 11.4229 58.1576C11.0351 58.7491 10.6377 59.2444 10.2307 59.783C10.1302 59.9129 9.99131 60.0138 9.88119 60.1389C9.2348 60.8602 8.57883 61.5815 7.96596 62.3125C7.85542 62.4882 7.77151 62.6794 7.71698 62.8799L7.76486 62.9713C7.86973 62.9284 7.96934 62.8735 8.06172 62.8078C8.56925 62.3269 9.05764 61.8123 9.57954 61.3651C10.3025 60.7063 11.0543 60.0764 11.7773 59.4416C12.6699 58.5761 13.4574 57.6076 14.1234 56.5563C14.4622 56.0545 14.7328 55.5095 14.9278 54.9357C15.132 54.333 15.2654 53.7084 15.3252 53.0747C15.3326 52.902 15.3033 52.7298 15.2393 52.5694C15.1753 52.4091 15.0779 52.2642 14.9538 52.1446C14.8297 52.0249 14.6816 51.9332 14.5195 51.8755C14.3573 51.8178 14.1847 51.7955 14.0133 51.81C13.9151 51.8111 13.8172 51.8224 13.7212 51.8436C13.1593 52.0025 12.6177 52.2269 12.1076 52.512C11.3623 52.8551 10.6717 53.3072 10.0583 53.8537C9.51729 54.3683 8.82302 54.7337 8.32028 55.2964C7.70193 55.9906 7.14444 56.7371 6.65402 57.5277C6.23 58.2221 5.84476 58.9398 5.5001 59.6772C5.299 60.0812 5.16493 60.5188 4.99256 60.9419C4.82019 61.3651 4.66218 61.721 4.51375 62.1153C4.36532 62.5096 4.19295 62.8174 4.06846 63.1829C3.91179 63.8614 3.70861 64.5282 3.46038 65.1785C3.2004 65.8574 2.98605 66.5531 2.81877 67.2608C2.60014 68.0598 2.29843 68.8334 1.91861 69.569C1.71752 69.9249 1.54514 70.3048 1.33447 70.6558C0.989728 71.2425 0.606682 71.8099 0.271516 72.4014C0.176039 72.6174 0.119305 72.8485 0.103934 73.0843C0.0154613 73.4833 -0.016774 73.8929 0.00817214 74.3009C0.00708595 74.4668 0.057769 74.6288 0.153098 74.7642C0.248427 74.8996 0.383611 75.0016 0.539649 75.0559C0.761067 75.1507 0.941038 75.3225 1.04657 75.5398C1.1521 75.7571 1.17612 76.0053 1.11422 76.2389C0.9434 77.1228 0.836189 78.018 0.793417 78.9174C0.793417 82.5433 0.61147 86.1691 0.946635 89.7902C1.00322 90.4563 1.24549 91.093 1.64569 91.6272C1.75079 91.7407 1.89412 91.811 2.04789 91.8243H2.33518C2.95763 91.8243 3.17309 91.5214 3.17788 90.7424C3.17788 89.1458 3.08212 87.5493 3.04381 85.9335C2.9248 83.7365 2.98084 81.5334 3.2114 79.3454C3.25984 78.9658 3.33992 78.591 3.4508 78.2249C3.55135 77.8835 3.7333 77.5661 3.83385 77.2199C3.90088 76.9843 3.88173 76.739 3.52741 76.7005C3.46995 76.7005 3.3694 76.5082 3.38855 76.4264C3.4508 76.1475 3.58487 75.8782 3.63753 75.5945C3.65459 75.3636 3.75871 75.148 3.92866 74.9916C4.09862 74.8352 4.32158 74.7499 4.55206 74.7529C5.3373 74.676 6.12255 74.5702 6.90779 74.4644C7.26961 74.418 7.62792 74.3473 7.98032 74.2528C8.62192 74.123 9.19649 73.9114 9.80458 73.7479Z" fill="white"/>
<path d="M96.3682 78.5808C96.402 78.4223 96.402 78.2584 96.3682 78.0999C96.3328 77.8351 96.267 77.5753 96.1719 77.3257C96.0748 77.0137 95.9114 76.7266 95.6931 76.4841C95.5452 76.3566 95.3566 76.2866 95.1616 76.287C94.8001 76.334 94.4561 76.4712 94.1609 76.6861C93.7176 76.9794 93.3232 77.3413 92.9926 77.7585C92.5138 78.3211 92.035 78.9222 91.5945 79.5089C91.5945 79.5474 91.5514 79.5906 91.5227 79.6291C91.245 80.0475 90.9433 80.4562 90.6944 80.8938C90.5363 81.1776 90.4741 81.5094 90.3448 81.8075C90.2155 82.1057 90.0049 82.3894 89.866 82.702C89.6506 83.279 89.4734 83.8657 89.2771 84.4476C89.1957 84.6928 89.1047 84.9285 89.0281 85.1737C88.8693 85.6054 88.7335 86.0452 88.6211 86.4913C88.5206 86.9289 88.4918 87.3858 88.4296 87.833C88.3673 88.2802 88.3243 88.6505 88.2572 89.0593C88.1471 89.7662 87.9843 90.4683 87.9221 91.1848C87.8598 91.9013 87.9221 92.5361 87.9221 93.2141H87.8407L88.171 97.9075C88.1734 97.9331 88.1734 97.9589 88.171 97.9845C88.2668 98.7202 88.3578 99.456 88.4583 100.192C88.4968 100.538 88.5575 100.882 88.6403 101.221C88.7169 101.505 88.8893 101.764 88.9754 102.043C89.0986 102.528 89.2587 103.002 89.4542 103.462C89.6667 104.028 90.0273 104.527 90.498 104.904C90.5495 104.943 90.6082 104.971 90.6706 104.986C90.7331 105.002 90.7979 105.004 90.8614 104.994C90.9248 104.984 90.9855 104.961 91.0399 104.926C91.0943 104.892 91.1413 104.847 91.1779 104.794C91.3647 104.52 91.2019 104.265 91.2115 104.005C91.2402 103.159 91.3072 102.308 91.2976 101.456C91.2976 99.6772 91.2498 97.8979 91.2019 96.1138C91.1779 95.2146 91.0965 94.3153 91.0487 93.4209C90.9912 92.3533 90.8715 91.2954 90.7135 90.2374C90.5746 89.2997 90.3736 88.2802 90.8859 87.3521C91.0258 87.0838 91.1858 86.8266 91.3647 86.5827C91.6998 86.1451 92.0733 85.7412 92.4085 85.3036C92.7437 84.8659 92.9974 84.4668 93.3039 84.0581C93.6677 83.5772 94.0556 83.0963 94.4051 82.6154C94.7546 82.1345 95.018 81.7113 95.2957 81.2449C95.5146 80.9078 95.7006 80.5503 95.8511 80.1773C96.0666 79.658 96.2437 79.1194 96.3682 78.5808ZM90.0192 95.8205C90.0671 96.6861 90.1868 97.5469 90.2012 98.4077C90.1785 98.869 90.0714 99.3222 89.8852 99.7445C89.8106 99.5239 89.7561 99.297 89.7224 99.0665C89.6889 98.5423 89.7224 98.0181 89.6889 97.494L89.5452 91.9542C89.5452 91.8051 89.5452 91.656 89.5452 91.507L89.6936 91.4733C89.7667 91.6156 89.8183 91.7679 89.8469 91.9253C89.8947 93.2285 89.933 94.5221 90.0192 95.8205ZM94.8073 79.3502C94.5823 79.783 94.3285 80.1918 94.0604 80.6053C93.7108 81.1631 93.3661 81.7258 92.9783 82.2596C92.7149 82.625 92.3798 82.9424 92.0829 83.2886C91.786 83.6349 91.5131 83.9907 91.221 84.337C91.1561 84.3994 91.0856 84.4557 91.0104 84.5053L90.8571 84.4235C90.9912 84.0388 91.0966 83.6493 91.2641 83.279C91.4707 82.8151 91.7074 82.3653 91.9728 81.9326C92.4516 81.1792 92.9495 80.4386 93.4666 79.7109C93.7448 79.3182 94.0556 78.9498 94.3955 78.6096C94.5757 78.4804 94.7765 78.3828 94.9893 78.3211L95.1329 78.4413C95.0351 78.7519 94.9168 79.0555 94.7786 79.3502H94.8073Z" fill="white"/>
<path d="M106.524 84.5726C106.155 84.9333 105.81 85.318 105.456 85.6931C105.366 85.8096 105.265 85.9174 105.154 86.0153C105.085 86.0756 104.997 86.1111 104.905 86.1163C104.771 86.1163 104.676 86.0105 104.666 85.8133C104.615 85.0489 104.495 84.2907 104.307 83.5483C104.077 82.6395 104.015 81.6921 103.622 80.8073C103.34 80.1581 103.268 79.4271 102.918 78.778C102.607 78.2057 102.44 77.5565 102.191 76.9506C101.841 76.0675 101.193 75.3357 100.361 74.8828C100.097 74.7415 99.8155 74.6364 99.5236 74.5702C99.3976 74.5434 99.2693 74.5289 99.1405 74.5269C99.0275 74.5213 98.9151 74.5462 98.8149 74.5991C98.5355 74.7618 98.2977 74.9878 98.1206 75.2592C97.9436 75.5305 97.8321 75.8396 97.7951 76.1619C97.9672 76.1538 98.1384 76.133 98.3074 76.0994C98.4547 76.0282 98.6067 75.9672 98.7623 75.9167C98.8724 75.9167 98.9825 75.9167 99.0926 75.9167C99.3969 75.901 99.6959 76.0005 99.9305 76.1956C100.133 76.3257 100.312 76.4881 100.462 76.6765C100.683 77.0484 100.873 77.4376 101.032 77.8402C101.281 78.499 101.511 79.1627 101.721 79.8359C101.965 80.5861 102.2 81.3459 102.401 82.1105C102.54 82.6346 102.612 83.1829 102.712 83.7214C102.776 84.4876 102.896 85.2479 103.072 85.996C103.148 86.454 103.156 86.9207 103.095 87.381C102.904 87.3377 102.703 87.3521 102.588 87.2559C102.157 86.9097 101.764 86.5202 101.338 86.1643C101.142 86.0008 100.898 85.895 100.692 85.746C100.327 85.4412 99.9432 85.1601 99.5427 84.9044C98.9681 84.5918 98.3505 84.3658 97.752 84.1013C97.6167 84.0469 97.4714 84.0223 97.3258 84.0292C96.8868 84.0226 96.4572 84.1574 96.1001 84.4139C95.9199 84.6021 95.7594 84.8083 95.6213 85.0294C95.5067 85.187 95.4252 85.3662 95.3815 85.5564C95.3379 85.7465 95.3332 85.9435 95.3675 86.1355C95.42 86.5854 95.513 87.0296 95.6452 87.4627C95.9629 88.3928 96.4499 89.2554 97.0816 90.0066C97.744 90.7038 98.6468 91.1201 99.605 91.1703H99.763C100.09 91.1535 100.412 91.0887 100.721 90.978C101.376 90.8056 101.989 90.4995 102.521 90.0787C102.569 90.0246 102.636 89.9903 102.708 89.9826C102.771 89.9879 102.832 90.0094 102.885 90.0451C103.182 90.1942 103.158 90.4586 103.234 90.6798C103.29 90.844 103.394 90.9875 103.533 91.0913C103.671 91.1951 103.837 91.2545 104.01 91.2617C104.088 91.2634 104.166 91.2484 104.237 91.2177C104.309 91.1871 104.374 91.1414 104.427 91.0838C104.589 90.9283 104.719 90.7411 104.807 90.5335C104.895 90.3259 104.94 90.1024 104.939 89.8768C104.939 89.3574 104.728 88.8092 105.126 88.2995C105.497 87.7779 105.841 87.237 106.155 86.6789C106.235 86.5373 106.328 86.4037 106.433 86.2798C106.673 86.0289 106.845 85.7204 106.933 85.3837C107.021 85.047 107.022 84.6933 106.936 84.3562C106.787 84.4054 106.648 84.4785 106.524 84.5726ZM101.616 89.2757C101.186 89.4831 100.735 89.6443 100.271 89.7565H100.136C99.8038 89.735 99.4785 89.6484 99.1788 89.5017C98.5921 89.2272 98.0942 88.7922 97.7424 88.2466C97.3423 87.8074 97.1099 87.2401 97.0864 86.6452C97.0864 86.1643 97.2397 85.8566 97.6083 85.8518C97.8966 85.8549 98.1808 85.9205 98.4415 86.0441C98.9555 86.2509 99.4388 86.5276 99.8779 86.8664C100.429 87.3473 101.147 87.6695 101.525 88.3572C101.578 88.4533 101.721 88.4918 101.798 88.5784C101.842 88.632 101.873 88.6955 101.887 88.7635C101.902 88.8314 101.901 88.9019 101.883 88.9692C101.865 89.0364 101.832 89.0984 101.785 89.15C101.739 89.2016 101.681 89.2414 101.616 89.266V89.2757Z" fill="white"/>
<path d="M85.6717 80.9083C86.8687 79.8936 88.037 78.8405 89.1957 77.7825C90.5028 76.5803 91.8004 75.3781 93.074 74.1278C93.2818 73.8338 93.4433 73.5094 93.5528 73.166L93.3374 72.9496C93.0348 73.0581 92.7482 73.2069 92.4851 73.392C90.1629 75.5079 87.8598 77.6479 85.5472 79.7734C85.3126 79.985 85.0396 80.1533 84.7715 80.3552C83.948 77.6527 83.0909 75.0655 82.3775 72.4495C81.6922 70.1066 81.56 67.6355 81.9914 65.2323C82.4227 62.8291 83.4058 60.56 84.8625 58.6049C85.4999 57.7968 86.2535 57.0886 87.0985 56.5034C87.273 56.3463 87.4926 56.2487 87.7257 56.2245C88.0322 56.2245 88.2046 56.5178 88.2429 57.066C88.2814 57.5288 88.2572 57.9947 88.171 58.451C87.6587 60.7833 87.0985 63.1107 86.5862 65.443C86.2845 66.8184 86.0403 68.2081 85.7674 69.5882L86.093 69.6796C86.2319 69.2805 86.4042 68.891 86.5048 68.4822C87.5007 64.5486 88.4966 60.6149 89.4447 56.6717C89.5082 56.2598 89.4104 55.8393 89.1717 55.4983C89.0173 55.2727 88.8108 55.088 88.5698 54.9598C88.3288 54.8317 88.0606 54.764 87.788 54.7626C87.5089 54.7649 87.2333 54.8254 86.9788 54.9405C86.3672 55.2041 85.7874 55.5365 85.2503 55.9311C83.4069 57.3257 82.3439 59.2973 81.4198 61.3603C79.7584 65.0295 79.9164 68.8285 80.9027 72.6322C81.6209 75.3925 82.3918 78.1336 83.1723 80.8746C83.2636 81.1243 83.2772 81.3959 83.2114 81.6535C83.1455 81.9111 83.0033 82.1426 82.8036 82.3173C81.3049 83.9138 79.8494 85.5488 78.4081 87.1982C78.1435 87.5096 77.9769 87.8929 77.9293 88.2995C77.8479 89.2612 79.1695 91.0357 80.1175 91.3483C80.5351 91.4836 80.9714 91.5518 81.4103 91.5502C82.4682 91.5442 83.492 91.173 84.3097 90.4988C85.1274 89.8246 85.6895 88.8884 85.9015 87.8474C86.1639 86.0018 85.9512 84.1194 85.2838 82.3798C85.1618 82.1286 85.1338 81.8417 85.205 81.5715C85.2762 81.3013 85.4418 81.0659 85.6717 80.9083ZM83.11 89.6507C82.5915 90.1067 81.9222 90.3519 81.2331 90.3384C80.9564 90.3535 80.681 90.2902 80.4383 90.1557C79.7105 89.6748 79.1934 88.1023 79.7344 87.4146C80.941 85.8662 82.2961 84.4428 83.5984 82.9713H83.8522C84.0102 83.8513 84.2065 84.7602 84.331 85.6834C84.4536 86.3946 84.4069 87.1248 84.1947 87.8143C83.9825 88.5038 83.6108 89.1331 83.11 89.6507Z" fill="white"/>
</svg>
