<svg width="30" height="30" viewBox="0 0 30 30" fill="none" xmlns="http://www.w3.org/2000/svg">
<path d="M26.906 7.47484C22.7175 0.999786 14.1661 -0.925228 7.53437 3.0998C1.07716 7.12483 -1.01707 15.8749 3.17139 22.3499L3.52043 22.875L2.12428 28.125L7.35985 26.725L7.88341 27.075C10.1522 28.3 12.5954 29 15.0387 29C17.6565 29 20.2743 28.3 22.543 26.9C29.0002 22.7 30.9199 14.1249 26.906 7.47484ZM23.2411 20.9499C22.543 21.9999 21.6704 22.7 20.4488 22.875C19.7507 22.875 18.8781 23.225 15.3877 21.8249C12.4209 20.4249 9.97763 18.1499 8.23244 15.5249C7.18533 14.2999 6.66177 12.7249 6.48725 11.1499C6.48725 9.74985 7.01081 8.52484 7.88341 7.64984C8.23244 7.29983 8.58148 7.12483 8.93052 7.12483H9.80311C10.1522 7.12483 10.5012 7.12483 10.6757 7.82484C11.0247 8.69985 11.8973 10.7999 11.8973 10.9749C12.0719 11.1499 12.0719 11.4999 11.8973 11.6749C12.0719 12.0249 11.8973 12.3749 11.7228 12.5499C11.5483 12.7249 11.3738 13.0749 11.1993 13.2499C10.8502 13.4249 10.6757 13.7749 10.8502 14.1249C11.5483 15.1749 12.4209 16.2249 13.2935 17.0999C14.3406 17.9749 15.3877 18.6749 16.6094 19.1999C16.9584 19.3749 17.3074 19.3749 17.482 19.0249C17.6565 18.6749 18.5291 17.7999 18.8781 17.4499C19.2271 17.0999 19.4017 17.0999 19.7507 17.2749L22.543 18.6749C22.892 18.8499 23.2411 19.0249 23.4156 19.1999C23.5901 19.7249 23.5901 20.4249 23.2411 20.9499Z" fill="white"/>
</svg>
